<?xml version="1.0" encoding="UTF-8" standalone="no"?>
<!DOCTYPE svg PUBLIC "-//W3C//DTD SVG 1.1//EN" "http://www.w3.org/Graphics/SVG/1.1/DTD/svg11.dtd">
<svg xmlns="http://www.w3.org/2000/svg" xmlns:xlink="http://www.w3.org/1999/xlink" version="1.1" width="174.914pt" height="43.5704pt" viewBox="0 0 174.914 43.5704">
<g enable-background="new">
<g id="Layer-1" data-name="Слой 1">
<path transform="matrix(1,0,0,-1,1,42.5704)" d="M 35.3565 3.57 C 28.9083 -.4799 20.6011 -1.2779 13.1862 2.1796 C 5.7713 5.637 1.0426 12.5135 0 20.0563 C 6.4483 24.1064 14.7555 24.9041 22.1703 21.4466 C 29.5849 17.9892 34.3137 11.1129 35.3565 3.57 Z M 34.846 3.776 C 28.9307 .0609 21.31 -.671 14.508 2.5007 C 7.706 5.6724 3.3681 11.9803 2.4117 18.8997 C 8.3271 22.6151 15.9477 23.347 22.7497 20.1753 C 29.5515 17.0036 33.8893 10.6957 34.846 3.776 " fill="#003a7e" fill-rule="evenodd"/>
<path transform="matrix(1,0,0,-1,1,42.5704)" d="M 35.7962 4.9122 C 40.3926 10.9831 41.9111 19.1891 39.113 26.877 C 36.3146 34.5645 29.8763 39.8747 22.4529 41.5704 C 18.8283 36.7829 17.1184 30.6677 17.9294 24.5262 C 19.1469 24.1872 20.3533 23.7444 21.5365 23.1925 C 28.5914 19.9029 33.2144 13.5181 34.5447 6.4091 C 28.2597 8.0271 22.746 12.2505 19.6517 18.3118 C 22.674 11.3233 28.7969 6.5112 35.7962 4.9122 " fill="#5bb12e" fill-rule="evenodd"/>
<path transform="matrix(1,0,0,-1,1,42.5704)" d="M 53.1992 34.0458 C 57.901 34.9177 60.738 33.5656 62.0595 30.2003 L 73.1435 1.4003 L 66.7361 1.4003 L 64.2124 8.0705 L 50.9468 8.0705 C 50.489 6.8893 50.0315 5.7078 49.574 4.5266 C 48.7483 2.1991 46.0658 1.2997 41.9553 1.4003 C 45.726 11.0818 49.4969 20.3831 53.2678 30.4747 C 53.6734 31.5604 53.9362 32.9406 53.1992 34.0458 Z M 57.5946 25.1595 L 53.2077 14.0196 L 61.9588 14.0196 Z " fill="#003a7e"/>
<path transform="matrix(1,0,0,-1,1,42.5704)" d="M 79.3307 34.5716 L 79.3307 1.4003 L 73.3365 1.4003 C 73.3365 10.6781 73.3365 17.0994 73.3365 26.3775 C 73.3365 32.9933 75.3403 34.5716 79.3307 34.5716 " fill="#003a7e"/>
<path transform="matrix(1,0,0,-1,1,42.5704)" d="M 104.1324 25.3321 C 99.415 25.475 98.1377 25.2592 96.5381 21.9339 L 91.9636 11.2105 C 90.4414 14.7478 88.9189 18.1426 87.3967 21.6802 C 86.1659 24.961 84.4707 25.3321 79.7947 25.3321 C 82.4899 19.0689 85.1851 12.8058 87.8803 6.5426 C 90.4955 .6797 90.2271 1.4003 97.1575 1.4003 C 95.1712 1.944 95.0726 3.9268 95.5114 4.9558 C 98.4753 11.9041 101.1685 18.3838 104.1324 25.3321 " fill="#003a7e"/>
<path transform="matrix(1,0,0,-1,1,42.5704)" d="M 135.9094 11.6762 L 116.642 11.6762 C 116.9201 9.9709 117.6636 8.6114 118.8655 7.5974 C 120.0674 6.5908 121.6077 6.0457 123.4701 6.0874 C 129.8356 6.2303 129.6459 9.9317 134.2644 6.0724 C 129.8415 -.2305 119.8077 -1.1242 114.3584 4.3597 C 112.0073 6.7184 110.8281 9.678 110.8281 13.231 C 110.8281 16.8741 112.0073 19.9012 114.3584 22.305 C 116.7097 24.7164 119.6541 25.918 123.2073 25.918 C 126.9706 25.918 130.0354 24.7164 132.3938 22.32 C 134.7525 19.9162 135.932 16.7539 135.932 12.8103 Z M 129.9376 16.3633 C 129.5396 17.6703 128.7584 18.737 127.5939 19.5557 C 126.4221 20.3746 125.07 20.7802 123.5228 20.7802 C 121.8475 20.7802 120.3829 20.3219 119.1132 19.398 C 118.3246 18.8271 117.5885 17.8132 116.9124 16.3633 Z " fill="#003a7e"/>
<path transform="matrix(1,0,0,-1,1,42.5704)" d="M 137.1246 25.3315 L 142.3074 25.3315 L 142.3074 22.2894 C 142.8633 23.4763 143.5995 24.3777 144.5156 24.9936 C 145.4397 25.6096 146.4463 25.9174 147.5354 25.9174 C 148.3089 25.9174 149.1202 25.7148 149.9692 25.3015 L 148.1063 20.1186 C 147.4078 20.4718 146.8293 20.6444 146.3786 20.6444 C 145.4621 20.6444 144.6809 20.0735 144.0502 18.9317 C 143.4115 17.7902 143.096 15.5517 143.096 12.2168 L 143.1187 11.0523 L 143.1187 1.4003 L 137.1246 1.4003 Z " fill="#003a7e"/>
<path transform="matrix(1,0,0,-1,1,42.5704)" d="M 160.1972 25.9174 C 162.4581 25.9174 164.5838 25.3542 166.5743 24.2274 C 168.5724 23.1007 170.1196 21.5759 171.239 19.6455 C 172.3581 17.7075 172.914 15.6268 172.914 13.3883 C 172.914 11.1351 172.3504 9.0317 171.2313 7.0713 C 170.1045 5.1109 168.5724 3.5785 166.6344 2.4744 C 164.6889 1.3703 162.5556 .8144 160.2196 .8144 C 156.7794 .8144 153.8425 2.031 151.4163 4.4649 C 148.9825 6.906 147.7655 9.8657 147.7655 13.3435 C 147.7655 17.0765 149.1403 20.1864 151.8894 22.6726 C 154.3005 24.8357 157.0649 25.9174 160.1972 25.9174 Z M 160.2873 20.2839 C 158.4167 20.2839 156.8619 19.6379 155.6226 18.3461 C 154.3833 17.0464 153.7597 15.3941 153.7597 13.3733 C 153.7597 11.3003 154.3757 9.6177 155.5999 8.3333 C 156.8245 7.0489 158.3793 6.4029 160.2646 6.4029 C 162.1426 6.4029 163.7048 7.0563 164.9594 8.3557 C 166.2063 9.6554 166.8297 11.3304 166.8297 13.3733 C 166.8297 15.4239 166.2137 17.0841 164.9894 18.3685 C 163.7649 19.6455 162.195 20.2839 160.2873 20.2839 " fill="#003a7e"/>
<path transform="matrix(1,0,0,-1,1,42.5704)" d="M 109.4669 25.3638 L 109.4669 1.2402 L 103.4728 1.2402 L 103.4728 17.1697 C 103.4728 23.7855 105.4766 25.3638 109.4669 25.3638 " fill="#003a7e"/>
<path transform="matrix(1,0,0,-1,1,42.5704)" d="M 17.9541 22.6695 C 19.3204 22.318 20.6742 21.8367 21.9991 21.2187 C 29.054 17.9291 33.677 11.5444 35.0073 4.4354 C 27.8461 6.2787 21.6856 11.5047 18.9652 18.9785 C 18.5207 20.1994 18.1857 21.4333 17.9541 22.6695 " fill="#003a7e" fill-rule="evenodd"/>
</g>
</g>
</svg>
